<svg xmlns="http://www.w3.org/2000/svg" viewBox="0 0 32 32" width="32" height="32">
  <!-- 背景圆形 -->
  <circle cx="16" cy="16" r="15" fill="#E8DDD4" stroke="#FF6B47" stroke-width="2"/>
  
  <!-- 猫咪头部 -->
  <ellipse cx="16" cy="18" rx="8" ry="7" fill="#FF6B47"/>
  
  <!-- 猫咪耳朵 -->
  <path d="M10 12 L8 8 L12 10 Z" fill="#FF6B47"/>
  <path d="M22 12 L24 8 L20 10 Z" fill="#FF6B47"/>
  
  <!-- 猫咪耳朵内部 -->
  <path d="M10 11 L9 9 L11 10 Z" fill="#FFB5A0"/>
  <path d="M22 11 L23 9 L21 10 Z" fill="#FFB5A0"/>
  
  <!-- 猫咪白色胸部 -->
  <ellipse cx="16" cy="20" rx="4" ry="5" fill="#FFFFFF"/>
  
  <!-- 猫咪眼睛 -->
  <ellipse cx="13" cy="16" rx="1.5" ry="2" fill="#4CAF50"/>
  <ellipse cx="19" cy="16" rx="1.5" ry="2" fill="#4CAF50"/>
  
  <!-- 猫咪瞳孔 -->
  <ellipse cx="13" cy="16" rx="0.5" ry="1" fill="#2E7D32"/>
  <ellipse cx="19" cy="16" rx="0.5" ry="1" fill="#2E7D32"/>
  
  <!-- 猫咪鼻子 -->
  <path d="M16 18 L15 19 L17 19 Z" fill="#E91E63"/>
  
  <!-- 猫咪嘴巴 -->
  <path d="M16 19 Q14 20 12 19" stroke="#666" stroke-width="0.5" fill="none"/>
  <path d="M16 19 Q18 20 20 19" stroke="#666" stroke-width="0.5" fill="none"/>
  
  <!-- 猫咪胡须 -->
  <line x1="8" y1="17" x2="11" y2="17" stroke="#666" stroke-width="0.5"/>
  <line x1="8" y1="19" x2="11" y2="18" stroke="#666" stroke-width="0.5"/>
  <line x1="21" y1="17" x2="24" y2="17" stroke="#666" stroke-width="0.5"/>
  <line x1="21" y1="18" x2="24" y2="19" stroke="#666" stroke-width="0.5"/>
</svg>